# xmcd
#
# Track frame offsets: 
#        150
#        6358
#        19788
#        28188
#        39788
#        45743
#        54713
#        68413
#        77406
#        90941
#        104266
#        105739
#        114057
#        115143
#        123776
#        125578
#        134245
#
# Disc length: 1799 seconds
#
# Revision: 0
# Processed by: cddbd v1.5.2PL0 Copyright (c) Steve Scherf et al.
# Submitted via: ExactAudioCopy v0.95b3
#
DISCID=d1070511
DTITLE=The Beatles  - Way Beyond Compare - Episode 15 - 5 March 1963 +
DTITLE=Here We Go (5-6 March 1963)  FLAC
DYEAR=1900
DGENRE=
TTITLE0=One After 909 - take 1 (stereo)
TTITLE1=One After 909 - take 2 (stereo)
TTITLE2=One After 909 - take 3 (stereo)
TTITLE3=One After 909 - take 4 (stereo)
TTITLE4=One After 909 - take 5 (stereo)
TTITLE5=From Me To You - RM from master edit synced with take 8
TTITLE6=One After 909 - edit #1 of take 4_5 (mono)
TTITLE7=From Me To You - edit of takes 8_9_10 (stereo)
TTITLE8=One After 909 - edit #2 of takes 4_5 (fake stereo)
TTITLE9=One After 909 - edit #3 of takes 4_5 (mono)
TTITLE10=Intro (Misery)
TTITLE11=Misery
TTITLE12=Intro (secret)
TTITLE13=Do You Want To Know A Secret
TTITLE14=Intro (please)
TTITLE15=Please Please Me
TTITLE16=Outro (please)
EXTD=
EXTT0=
EXTT1=
EXTT2=
EXTT3=
EXTT4=
EXTT5=
EXTT6=
EXTT7=
EXTT8=
EXTT9=
EXTT10=
EXTT11=
EXTT12=
EXTT13=
EXTT14=
EXTT15=
EXTT16=
PLAYORDER=
